REM DIRINDEX 1\2,1\3,1\4,1\6,1\5\7,1\5\8
REM DIRNAME cjc114,folder01,folder02,folder03,folder04,folder05,folder06,folder07
TITLE ""
FILE "DB4500_5th_1A_16.mp3" MP3
  TRACK 01 AUDIO
    TITLE "0:"
    INDEX 01 00:00:00
  TRACK 02 AUDIO
    TITLE "2:cjc114_0445"
    INDEX 01 00:00:05
  TRACK 03 AUDIO
    TITLE "0:"
    INDEX 01 00:01:28
  TRACK 04 AUDIO
    TITLE "3:cjc114_0446"
    INDEX 01 00:01:52
  TRACK 05 AUDIO
    TITLE "0:"
    INDEX 01 00:03:19
  TRACK 06 AUDIO
    TITLE "4:cjc114_0447"
    INDEX 01 00:03:45
  TRACK 07 AUDIO
    TITLE "0:"
    INDEX 01 00:08:03
  TRACK 08 AUDIO
    TITLE "2:cjc114_0448"
    INDEX 01 00:08:50
  TRACK 09 AUDIO
    TITLE "0:"
    INDEX 01 00:09:55
  TRACK 10 AUDIO
    TITLE "3:cjc114_0449"
    INDEX 01 00:10:06
  TRACK 11 AUDIO
    TITLE "0:"
    INDEX 01 00:11:13
  TRACK 12 AUDIO
    TITLE "4:cjc114_0450"
    INDEX 01 00:11:39
  TRACK 13 AUDIO
    TITLE "0:"
    INDEX 01 00:16:53
  TRACK 14 AUDIO
    TITLE "2:cjc114_0451"
    INDEX 01 00:17:25
  TRACK 15 AUDIO
    TITLE "0:"
    INDEX 01 00:18:31
  TRACK 16 AUDIO
    TITLE "3:cjc114_0452"
    INDEX 01 00:18:56
  TRACK 17 AUDIO
    TITLE "0:"
    INDEX 01 00:19:44
  TRACK 18 AUDIO
    TITLE "4:cjc114_0453"
    INDEX 01 00:19:67
  TRACK 19 AUDIO
    TITLE "0:"
    INDEX 01 00:24:45
  TRACK 20 AUDIO
    TITLE "2:cjc114_0454"
    INDEX 01 00:25:17
  TRACK 21 AUDIO
    TITLE "0:"
    INDEX 01 00:26:24
  TRACK 22 AUDIO
    TITLE "3:cjc114_0455"
    INDEX 01 00:26:48
  TRACK 23 AUDIO
    TITLE "0:"
    INDEX 01 00:28:00
  TRACK 24 AUDIO
    TITLE "4:cjc114_0456"
    INDEX 01 00:28:27
  TRACK 25 AUDIO
    TITLE "0:"
    INDEX 01 00:32:43
  TRACK 26 AUDIO
    TITLE "2:cjc114_0457"
    INDEX 01 00:33:17
  TRACK 27 AUDIO
    TITLE "0:"
    INDEX 01 00:34:24
  TRACK 28 AUDIO
    TITLE "3:cjc114_0458"
    INDEX 01 00:34:49
  TRACK 29 AUDIO
    TITLE "0:"
    INDEX 01 00:35:74
  TRACK 30 AUDIO
    TITLE "4:cjc114_0459"
    INDEX 01 00:36:23
  TRACK 31 AUDIO
    TITLE "0:"
    INDEX 01 00:41:49
  TRACK 32 AUDIO
    TITLE "2:cjc114_0460"
    INDEX 01 00:42:23
  TRACK 33 AUDIO
    TITLE "0:"
    INDEX 01 00:43:27
  TRACK 34 AUDIO
    TITLE "3:cjc114_0461"
    INDEX 01 00:43:54
  TRACK 35 AUDIO
    TITLE "0:"
    INDEX 01 00:45:02
  TRACK 36 AUDIO
    TITLE "4:cjc114_0462"
    INDEX 01 00:45:28
  TRACK 37 AUDIO
    TITLE "0:"
    INDEX 01 00:47:46
  TRACK 38 AUDIO
    TITLE "2:cjc114_0463"
    INDEX 01 00:48:18
  TRACK 39 AUDIO
    TITLE "0:"
    INDEX 01 00:49:16
  TRACK 40 AUDIO
    TITLE "3:cjc114_0464"
    INDEX 01 00:49:39
  TRACK 41 AUDIO
    TITLE "0:"
    INDEX 01 00:50:60
  TRACK 42 AUDIO
    TITLE "4:cjc114_0465"
    INDEX 01 00:51:05
  TRACK 43 AUDIO
    TITLE "0:"
    INDEX 01 00:53:53
  TRACK 44 AUDIO
    TITLE "2:cjc114_0466"
    INDEX 01 00:54:23
  TRACK 45 AUDIO
    TITLE "0:"
    INDEX 01 00:55:36
  TRACK 46 AUDIO
    TITLE "3:cjc114_0467"
    INDEX 01 00:55:59
  TRACK 47 AUDIO
    TITLE "0:"
    INDEX 01 00:57:41
  TRACK 48 AUDIO
    TITLE "4:cjc114_0468"
    INDEX 01 00:57:68
  TRACK 49 AUDIO
    TITLE "0:"
    INDEX 01 01:01:31
  TRACK 50 AUDIO
    TITLE "2:cjc114_0469"
    INDEX 01 01:02:03
  TRACK 51 AUDIO
    TITLE "0:"
    INDEX 01 01:03:10
  TRACK 52 AUDIO
    TITLE "3:cjc114_0470"
    INDEX 01 01:03:33
  TRACK 53 AUDIO
    TITLE "0:"
    INDEX 01 01:04:41
  TRACK 54 AUDIO
    TITLE "4:cjc114_0471"
    INDEX 01 01:04:64
  TRACK 55 AUDIO
    TITLE "0:"
    INDEX 01 01:09:40
  TRACK 56 AUDIO
    TITLE "2:cjc114_0472"
    INDEX 01 01:10:14
  TRACK 57 AUDIO
    TITLE "0:"
    INDEX 01 01:11:21
  TRACK 58 AUDIO
    TITLE "3:cjc114_0473"
    INDEX 01 01:11:47
  TRACK 59 AUDIO
    TITLE "0:"
    INDEX 01 01:12:64
  TRACK 60 AUDIO
    TITLE "4:cjc114_0474"
    INDEX 01 01:13:10
  TRACK 61 AUDIO
    TITLE "0:"
    INDEX 01 01:17:65
